<svg xmlns="http://www.w3.org/2000/svg" xmlns:xlink="http://www.w3.org/1999/xlink" width="1930" height="464.97" viewBox="0 0 1930 464.97">
  <defs>
    <style>
      .cls-1 {
        fill-rule: evenodd;
        fill: url(#linear-gradient);
      }
    </style>
    <linearGradient id="linear-gradient" x1="812.522" y1="1569" x2="1114.478" y2="1104.03" gradientUnits="userSpaceOnUse">
      <stop offset="0" stop-color="#fce5cd"/>
      <stop offset="1" stop-color="#fcfacd"/>
    </linearGradient>
  </defs>
  <path id="adv_bg.svg" class="cls-1" d="M-3,1158.75c62.273-22.21,130.67-36.6,203.731-45.02,36.53-4.21,74.227-6.93,112.908-8.39q29.012-1.1,58.738-1.28t60.077,0.43c161.868,3.27,336.6,22.93,512.338,43.92,351.868,42.22,705.928,88.52,974.378,22.88,1.21,47.15,5.73,102.15,8.57,161.42,1.42,29.63,2.4,60.31,2.27,91.57s-1.37,63.09-4.43,94.98c-46.78,21.2-103.56,34.58-168.17,42.05-32.3,3.74-66.57,6-102.52,7.04q-26.955.765-55.15,0.65-28.17-.105-57.47-1c-156.17-4.75-334.91-25.29-518.72-46.1C655.926,1480.28,268.028,1437.62-.1,1518.29c0-126.83,0-253.67-2.9-359.54h0Z" transform="translate(0 -1104.03)"/>
</svg>
